<?xml version="1.0" encoding="iso-8859-1"?>
<!-- Generator: Adobe Illustrator 19.0.0, SVG Export Plug-In . SVG Version: 6.00 Build 0)  -->
<svg version="1.1" id="Capa_1" xmlns="http://www.w3.org/2000/svg" xmlns:xlink="http://www.w3.org/1999/xlink" x="0px" y="0px"
	 viewBox="0 0 512 512" style="enable-background:new 0 0 512 512;" xml:space="preserve">
<path style="fill:#D9EEF7;" d="M501.333,96v362.667c0,23.564-19.103,42.667-42.667,42.667H53.333
	c-23.564,0-42.667-19.103-42.667-42.667V96H501.333z"/>
<path style="fill:#AAC4DA;" d="M501.333,53.333V96H10.667V53.333c0-23.564,19.103-42.667,42.667-42.667h405.333
	C482.231,10.667,501.333,29.769,501.333,53.333z"/>
<path style="fill:#FF7260;" d="M298.667,394.667v32c0,5.891-4.776,10.667-10.667,10.667h-64c-5.891,0-10.667-4.776-10.667-10.667
	v-32H298.667z"/>
<path style="fill:#31E8BB;" d="M170.667,394.667v32c0,5.891-4.776,10.667-10.667,10.667H96c-5.891,0-10.667-4.776-10.667-10.667v-32
	H170.667z"/>
<g>
	<path style="fill:#F2F2F2;" d="M96,277.333h320c5.891,0,10.667,4.776,10.667,10.667v42.667c0,5.891-4.776,10.667-10.667,10.667H96
		c-5.891,0-10.667-4.776-10.667-10.667V288C85.333,282.109,90.109,277.333,96,277.333z"/>
	<path style="fill:#F2F2F2;" d="M96,160h320c5.891,0,10.667,4.776,10.667,10.667v42.667c0,5.891-4.776,10.667-10.667,10.667H96
		c-5.891,0-10.667-4.776-10.667-10.667v-42.667C85.333,164.776,90.109,160,96,160z"/>
</g>
<g>
	<path style="fill:#4C5B66;" d="M458.667,0H53.333C23.893,0.035,0.035,23.893,0,53.333v405.333
		C0.035,488.107,23.893,511.965,53.333,512h405.333c29.441-0.035,53.298-23.893,53.333-53.333V53.333
		C511.965,23.893,488.107,0.035,458.667,0z M490.667,458.667c0,17.673-14.327,32-32,32H53.333c-17.673,0-32-14.327-32-32V53.333
		c0-17.673,14.327-32,32-32h405.333c17.673,0,32,14.327,32,32V458.667z"/>
	<path style="fill:#4C5B66;" d="M42.667,85.333h426.667v21.333H42.667V85.333z"/>
	<path style="fill:#4C5B66;" d="M53.333,42.667h21.333V64H53.333V42.667z"/>
	<path style="fill:#4C5B66;" d="M96,42.667h21.333V64H96V42.667z"/>
	<path style="fill:#4C5B66;" d="M437.333,42.667h21.333V64h-21.333V42.667z"/>
	<path style="fill:#4C5B66;" d="M416,149.333H96c-11.782,0-21.333,9.551-21.333,21.333v42.667c0,11.782,9.551,21.333,21.333,21.333
		h320c11.782,0,21.333-9.551,21.333-21.333v-42.667C437.333,158.885,427.782,149.333,416,149.333z M416,213.333H96v-42.667h320
		V213.333z"/>
	<path style="fill:#4C5B66;" d="M416,266.667H96c-11.782,0-21.333,9.551-21.333,21.333v42.667C74.667,342.449,84.218,352,96,352h320
		c11.782,0,21.333-9.551,21.333-21.333V288C437.333,276.218,427.782,266.667,416,266.667z M416,330.667H96V288h320V330.667z"/>
	<path style="fill:#4C5B66;" d="M170.667,384H85.333c-5.891,0-10.667,4.776-10.667,10.667v32C74.667,438.449,84.218,448,96,448h64
		c11.782,0,21.333-9.551,21.333-21.333v-32C181.333,388.776,176.558,384,170.667,384z M160,426.667H96v-21.333h64V426.667z"/>
	<path style="fill:#4C5B66;" d="M298.667,384h-85.333c-5.891,0-10.667,4.776-10.667,10.667v32c0,11.782,9.551,21.333,21.333,21.333
		h64c11.782,0,21.333-9.551,21.333-21.333v-32C309.333,388.776,304.558,384,298.667,384z M288,426.667h-64v-21.333h64V426.667z"/>
	<path style="fill:#4C5B66;" d="M416,384h21.333v21.333H416V384z"/>
	<path style="fill:#4C5B66;" d="M373.333,384h21.333v21.333h-21.333V384z"/>
	<path style="fill:#4C5B66;" d="M341.333,426.667h96V448h-96V426.667z"/>
</g>
<g>
</g>
<g>
</g>
<g>
</g>
<g>
</g>
<g>
</g>
<g>
</g>
<g>
</g>
<g>
</g>
<g>
</g>
<g>
</g>
<g>
</g>
<g>
</g>
<g>
</g>
<g>
</g>
<g>
</g>
</svg>
