<?xml version="1.0" encoding="UTF-8" standalone="no"?>
<!DOCTYPE svg PUBLIC "-//W3C//DTD SVG 1.1//EN" "http://www.w3.org/Graphics/SVG/1.1/DTD/svg11.dtd">
<svg width="100%" height="100%" viewBox="0 0 295 295" version="1.1" xmlns="http://www.w3.org/2000/svg" xmlns:xlink="http://www.w3.org/1999/xlink" xml:space="preserve" xmlns:serif="http://www.serif.com/" style="fill-rule:evenodd;clip-rule:evenodd;stroke-linejoin:round;stroke-miterlimit:2;">
    <g transform="matrix(1.33333,0,0,1.33333,0,0)">
        <path d="M218.278,103.775L118.384,7.497C116.286,5.475 113.495,4.361 110.528,4.361C107.559,4.361 104.768,5.474 102.671,7.497L2.776,103.775C-0.57,106.999 -0.179,109.771 0.351,111.087C0.882,112.402 2.466,114.692 7.112,114.692L18.36,114.692L18.36,200.262C18.36,209.168 26.036,216.692 34.728,216.692L85.36,216.692L85.36,158.692L134.36,158.692L134.36,216.692L186.325,216.692C195.045,216.692 202.36,209.014 202.36,200.262L202.36,114.692L213.941,114.692C218.587,114.692 220.17,112.402 220.702,111.087C221.232,109.771 221.624,107 218.278,103.775Z" style="fill:rgb(76,91,102);fill-rule:nonzero;"/>
    </g>
</svg>
