<?xml version="1.0" encoding="UTF-8" standalone="no"?>
<!DOCTYPE svg PUBLIC "-//W3C//DTD SVG 1.1//EN" "http://www.w3.org/Graphics/SVG/1.1/DTD/svg11.dtd">
<svg width="100%" height="100%" viewBox="0 0 640 640" version="1.1" xmlns="http://www.w3.org/2000/svg" xmlns:xlink="http://www.w3.org/1999/xlink" xml:space="preserve" xmlns:serif="http://www.serif.com/" style="fill-rule:evenodd;clip-rule:evenodd;stroke-linejoin:round;stroke-miterlimit:2;">
    <g transform="matrix(1.33333,0,0,1.33333,0,0)">
        <path d="M240,0C107.452,0 0,107.452 0,240C0,372.548 107.452,480 240,480C372.548,480 480,372.548 480,240C479.85,107.514 372.486,0.15 240,0ZM240,464C116.288,464 16,363.712 16,240C16,116.288 116.288,16 240,16C363.712,16 464,116.288 464,240C463.859,363.653 363.653,463.859 240,464Z" style="fill:rgb(76,91,102);fill-rule:nonzero;"/>
        <path d="M440,232C435.582,232 432,235.582 432,240C431.877,345.987 345.987,431.877 240,432C235.582,432 232,435.582 232,440C232,444.418 235.582,448 240,448C354.822,447.872 447.872,354.822 448,240C448,235.582 444.418,232 440,232Z" style="fill:rgb(76,91,102);fill-rule:nonzero;"/>
        <path d="M240,32C125.178,32.128 32.128,125.178 32,240C32,244.418 35.582,248 40,248C44.418,248 48,244.418 48,240C48.123,134.013 134.013,48.123 240,48C244.418,48 248,44.418 248,40C248,35.582 244.418,32 240,32Z" style="fill:rgb(76,91,102);fill-rule:nonzero;"/>
        <path d="M240,120C226.745,120 216,130.745 216,144C216,157.255 226.745,168 240,168C253.255,168 264,157.255 264,144C264,130.745 253.255,120 240,120ZM240,152C235.582,152 232,148.418 232,144C232,139.582 235.582,136 240,136C244.418,136 248,139.582 248,144C248,148.418 244.418,152 240,152Z" style="fill:rgb(76,91,102);fill-rule:nonzero;"/>
        <path d="M280,320L264,320L264,184L184,184L184,208C184,216.837 191.163,224 200,224L216,224L216,360L296,360L296,336C296,327.163 288.837,320 280,320ZM280,344L232,344L232,208L200,208L200,200L248,200L248,336L280,336L280,344Z" style="fill:rgb(76,91,102);fill-rule:nonzero;"/>
    </g>
</svg>
